HIERARCHY
ROOT Hips
{
  OFFSET 0 0 0
  CHANNELS 6 Xposition Yposition Zposition Zrotation Yrotation Xrotation
  JOINT LeftThigh
  {
    OFFSET 8.409438 0 -5.917753
    CHANNELS 3 Zrotation Yrotation Xrotation
    JOINT LeftLeg
    {
      OFFSET 0 0 -42.358652
      CHANNELS 3 Zrotation Yrotation Xrotation
      JOINT LeftFoot
      {
        OFFSET 0 0 -39.357303
        CHANNELS 3 Zrotation Yrotation Xrotation
      }
    }
  }
  JOINT RightThigh
  {
    OFFSET -8.409438 0 -5.917753
    CHANNELS 3 Zrotation Yrotation Xrotation
    JOINT RightLeg
    {
      OFFSET 0 0 -42.358652
      CHANNELS 3 Zrotation Yrotation Xrotation
      JOINT RightFoot
      {
        OFFSET 0 0 -39.357303
        CHANNELS 3 Zrotation Yrotation Xrotation
      }
    }
  }
  JOINT SpineLow
  {
    OFFSET 0 0 4.719101
    CHANNELS 3 Zrotation Yrotation Xrotation
    JOINT SpineMid
    {
      OFFSET 0 0 12.899191
      CHANNELS 3 Zrotation Yrotation Xrotation
      JOINT Chest
      {
        OFFSET 0 0 12.899191
        CHANNELS 3 Zrotation Yrotation Xrotation
        JOINT LeftShoulder
        {
          OFFSET 7.550562 1.41573 9.438202
          CHANNELS 3 Zrotation Yrotation Xrotation
          JOINT LeftArm
          {
            OFFSET 9.155056 0 4.247191
            CHANNELS 3 Zrotation Yrotation Xrotation
            JOINT LeftForearm
            {
              OFFSET 0 0 25.771955
              CHANNELS 3 Zrotation Yrotation Xrotation
              JOINT LeftHand
              {
                OFFSET 0 0 25.197169
                CHANNELS 3 Zrotation Yrotation Xrotation
              }
            }
          }
        }
        JOINT RightShoulder
        {
          OFFSET -7.550562 1.41573 9.438202
          CHANNELS 3 Zrotation Yrotation Xrotation
          JOINT RightArm
          {
            OFFSET -9.155056 0 4.247191
            CHANNELS 3 Zrotation Yrotation Xrotation
            JOINT RightForearm
            {
              OFFSET 0 0 -25.771955
              CHANNELS 3 Zrotation Yrotation Xrotation
              JOINT RightHand
              {
                OFFSET 0 0 -25.197169
                CHANNELS 3 Zrotation Yrotation Xrotation
              }
            }
          }
        }
        JOINT Neck
        {
          OFFSET 0 0 15.101124
          CHANNELS 3 Zrotation Yrotation Xrotation
          JOINT Head
          {
            OFFSET 0 0 11.325843
            CHANNELS 3 Zrotation Yrotation Xrotation
            End Site
            {
              OFFSET 0 0 14.157303
            }
          }
        }
      }
    }
  }
}
MOTION
Frames: 11
Frame Time: 0.0
0.0  89.887642  0.0  3.119866  -46.492688  -98.206221  36.069447  -35.281145  -35.741155  11.182095  24.138701  68.866109  0.636417  0.574463  1.748871  -6.137041  24.730124  -17.664583  7.139932  12.695137  42.041892  8.029498  4.444335  -0.98888  -0.143897  0.922629  0.134036  -0.388386  2.522693  0.361043  -0.388386  2.522693  0.361043  -4.660156  22.688778  9.635066  -96.318996  52.976361  -71.134164  -34.596106  19.88848  92.727135  42.976758  -32.879459  18.596181  8.481666  1.783781  29.723346  130.668704  39.400001  45.619962  -10.947644  -1.351017  -80.429346  98.52438  6.43584  -28.602058  13.436487  -3.962091  4.069556  10.100274  -2.88392  3.139999  
0.0  89.887642  0.0  3.051897  -47.528875  -98.472703  36.591392  -36.158619  -36.153446  10.786967  25.226551  70.043922  0.103169  0.41067  1.621049  -8.078449  23.999464  -18.648639  6.933726  12.664783  42.148942  8.278051  4.622472  -0.835475  -0.253644  1.044347  0.088261  -0.689891  2.855505  0.230424  -0.689891  2.855505  0.230424  -4.125247  23.318199  10.240718  -91.9469  52.325204  -68.09518  -34.805269  20.799238  92.745274  43.247233  -32.928447  17.934082  8.703298  1.47316  29.800741  129.648532  38.777344  45.280142  -10.42018  -2.149182  -80.654433  98.1104  6.426295  -28.667919  14.540592  -4.664478  4.16437  10.931825  -3.401785  3.234945  
0.0  89.887642  0.0  3.033508  -48.154018  -98.550994  36.243621  -37.032341  -36.54146  10.892675  26.442074  71.270307  0.375562  0.382412  1.509351  -10.225157  22.888752  -19.738361  7.395593  12.845931  42.551789  8.621551  5.00397  -0.865617  -0.264617  1.198756  0.082703  -0.719746  3.277536  0.213092  -0.719746  3.277536  0.213092  -4.564219  23.482212  10.277018  -89.007613  51.690792  -66.366997  -34.847414  21.776493  92.662523  43.430899  -32.671878  17.414153  8.176659  0.796458  29.5038  128.699781  37.926944  45.049181  -9.963642  -2.974981  -81.089697  97.605205  6.274361  -28.507445  15.041497  -5.293733  3.831463  11.306839  -3.879018  3.004363  
0.0  89.887642  0.0  2.968639  -48.907703  -98.376289  36.120517  -37.573547  -37.05988  11.027665  27.057624  72.273462  1.07222  0.404958  1.668696  -11.969875  21.931745  -21.780253  8.631665  12.906566  44.136511  9.645718  5.225234  -1.013678  -0.139742  1.375736  0.156573  -0.373426  3.76131  0.420438  -0.373426  3.76131  0.420438  -5.935323  22.874418  9.486745  -87.626805  51.064906  -66.143311  -34.730891  22.69667  92.608085  43.395388  -32.281394  17.335395  7.121265  -0.280217  28.766568  127.989388  37.232162  45.149878  -9.434892  -3.725037  -81.679973  97.24893  6.05541  -28.209266  15.182434  -5.756704  3.024292  11.406088  -4.245678  2.411555  
0.0  89.887642  0.0  3.133016  -49.941628  -98.427819  36.111235  -37.789019  -37.183759  11.127062  26.740994  73.146554  0.839688  0.474955  1.562917  -12.822086  20.955833  -23.880128  12.049977  12.980091  46.7717  9.749308  4.356648  -0.686349  -0.144517  1.529974  0.373976  -0.371786  4.184137  1.014319  -0.371786  4.184137  1.014319  -6.137686  21.83913  8.083765  -88.11922  50.079688  -67.275525  -34.50336  23.135039  92.622024  43.115291  -31.760465  17.565673  7.300702  -1.098791  27.415861  127.495179  36.823421  45.427064  -9.142256  -3.936653  -82.181766  96.882731  5.96715  -28.223818  16.051715  -5.784133  1.732733  12.045069  -4.296172  1.452069  
0.0  89.887642  0.0  3.782911  -51.051011  -99.606096  35.492603  -38.180593  -35.956222  11.276103  26.381994  73.600595  0.819511  0.586998  1.545562  -11.790471  20.960648  -24.655868  13.90587  11.694775  49.791473  9.046031  4.265221  -1.322958  -0.110704  1.721234  0.777091  -0.247568  4.707813  2.11951  -0.247568  4.707813  2.11951  -5.880132  20.42639  7.119189  -90.045493  48.522302  -69.342548  -34.197927  23.092476  92.916926  42.714114  -31.190559  17.910256  7.438883  -1.628277  25.890069  127.122068  36.671302  45.542776  -9.10967  -3.767679  -82.425735  96.800088  6.062439  -28.440666  16.934363  -5.604258  0.300714  12.693375  -4.198682  0.381503  
0.0  89.887642  0.0  4.841866  -52.175294  -101.058822  34.970898  -38.408123  -34.393883  11.635829  26.082124  73.800964  0.820634  0.596149  1.529552  -9.692397  22.213646  -25.442172  12.998653  10.511775  52.13755  8.819424  4.494803  -1.181879  0.067623  1.914642  1.112594  0.273548  5.229082  3.0524  0.273548  5.229082  3.0524  -6.419171  19.25936  6.523075  -92.014382  47.022295  -71.505191  -33.740003  22.634428  93.368991  42.290673  -30.697935  18.379244  6.911072  -2.028997  24.908829  126.459433  36.627826  45.330564  -9.076068  -3.475502  -82.59062  97.244832  6.162253  -28.756631  17.202046  -5.43194  -0.769903  12.885009  -4.099463  -0.42402  
0.0  89.887642  0.0  5.987476  -52.720033  -102.303094  34.285706  -38.447648  -33.147571  12.22064  25.635465  74.053687  0.652554  0.627007  1.392835  -8.425554  23.535723  -26.247818  11.863359  10.325497  53.7968  8.63254  4.611961  -1.024795  0.063822  1.973755  1.228187  0.275369  5.390203  3.369233  0.275369  5.390203  3.369233  -6.372039  19.328573  6.603022  -93.154459  45.710173  -73.106684  -33.361402  22.195353  93.700313  41.956137  -30.26601  18.78865  7.084879  -1.858506  24.916987  125.602027  36.414402  44.930592  -9.104152  -3.09363  -82.665947  98.07341  6.310142  -29.246223  17.598556  -5.073999  -0.988881  13.182086  -3.837741  -0.595239  
0.0  89.887642  0.0  6.938536  -52.986785  -103.292834  33.75943  -38.598336  -32.125632  12.913566  25.258555  74.131492  0.442284  0.731351  1.286221  -7.938095  23.945694  -26.492602  11.671595  11.108787  54.776037  9.103417  4.418989  -1.087554  -0.025464  1.972433  1.271247  0.034344  5.391072  3.479865  0.034344  5.391072  3.479865  -6.06341  19.933613  6.704926  -93.433347  44.693224  -73.800101  -33.222307  21.941557  93.703266  41.812768  -29.956796  18.870822  7.620948  -1.53299  25.137574  124.690177  36.302958  44.402979  -9.206782  -2.61706  -82.717818  98.962912  6.609463  -29.728474  18.036553  -4.736469  -0.870337  13.512971  -3.581733  -0.51277  
0.0  89.887642  0.0  7.498301  -53.108322  -103.766058  33.907912  -38.777213  -31.657589  13.405629  25.016243  74.071612  0.134488  0.844955  1.149206  -8.975785  23.615301  -26.999295  12.890881  11.31603  55.208593  9.345447  4.281169  -1.225447  -0.122791  1.950106  1.247534  -0.235244  5.335117  3.406905  -0.235244  5.335118  3.406905  -5.522156  20.406112  6.754131  -93.772708  44.156082  -74.162275  -33.260552  21.708171  93.361791  41.733208  -29.684565  18.773102  7.99872  -1.336674  25.425416  123.750452  36.31496  43.712368  -9.246653  -1.959193  -82.75156  99.690209  7.018153  -30.086706  18.343297  -4.597325  -0.479675  13.746469  -3.466089  -0.221476  
0.0  89.887642  0.0  7.852183  -53.188565  -103.948263  34.74822  -38.807691  -31.669272  13.404993  24.93761  73.857751  -0.312198  0.956083  0.825453  -10.504508  23.207748  -27.837734  15.77809  10.090223  55.691418  7.702841  3.697315  -1.296339  -0.226292  1.91772  1.192075  -0.524714  5.251554  3.24671  -0.524714  5.251554  3.24671  -4.821374  20.896893  6.669559  -94.232967  43.990388  -74.381207  -33.351603  21.554321  92.860848  41.70721  -29.282899  18.709968  8.31071  -1.145009  25.622405  122.672832  36.421851  42.78835  -9.154399  -1.183787  -82.721123  100.182275  7.36581  -30.357974  18.61601  -4.559229  0.111  13.955444  -3.4198  0.222665  
